name Walk5.mot
datacolumns 19
datarows 20
range 0.97500000 1.07000000
endheader

                time	   L_ground_force_vx	   L_ground_force_vy	   L_ground_force_vz	   L_ground_force_px	   L_ground_force_py	   L_ground_force_pz	   R_ground_force_vx	   R_ground_force_vy	   R_ground_force_vz	   R_ground_force_px	   R_ground_force_py	   R_ground_force_pz	   L_ground_torque_x	   L_ground_torque_y	   L_ground_torque_z	   R_ground_torque_x	   R_ground_torque_y	   R_ground_torque_z	
          0.97500000	         -9.02997445	        219.81826661	        -26.03469124	         -0.05596714	          0.00000000	          0.00525745	         -0.00000000	          0.00000000	          0.00000000	          0.00000000	          0.00000000	          0.00000000	          0.00000000	          0.38065267	          0.00000000	          0.00000000	         -0.00000000	          0.00000000	
          0.98000000	        -16.32651908	        291.01753111	        -32.28632870	         -0.12057875	          0.00000000	          0.01081774	         -0.00000000	          0.00000000	          0.00000000	          0.00000000	          0.00000000	          0.00000000	          0.00000000	          0.47922719	          0.00000000	          0.00000000	          0.00000000	          0.00000000	
          0.98500000	        -26.08518772	        362.97328559	        -38.33029027	         -0.17760755	          0.00000000	          0.01567906	         -0.00000000	          0.00000000	          0.00000000	          0.00000000	          0.00000000	          0.00000000	          0.00000000	          0.57654550	          0.00000000	          0.00000000	          0.00000000	          0.00000000	
          0.99000000	        -38.26825702	        430.40603945	        -43.28589132	         -0.22507832	          0.00000000	          0.01963389	         -0.00000000	          0.00000000	          0.00000000	          0.00000000	          0.00000000	          0.00000000	          0.00000000	          0.66302043	          0.00000000	          0.00000000	          0.00000000	          0.00000000	
          0.99500000	        -52.38110558	        490.05561242	        -46.24609517	         -0.26247449	          0.00000000	          0.02258131	         -0.00000000	          0.00000000	          0.00000000	          0.00000000	          0.00000000	          0.00000000	          0.00000000	          0.73045830	          0.00000000	          0.00000000	          0.00000000	          0.00000000	
          1.00000000	        -67.50109595	        541.05290933	        -46.61853208	         -0.29025760	          0.00000000	          0.02450372	         -0.00000000	          0.00000000	          0.00000000	          0.00000000	          0.00000000	          0.00000000	          0.00000000	          0.77088881	          0.00000000	          0.00000000	          0.00000000	          0.00000000	
          1.00500000	        -82.50647253	        583.79313733	        -44.24899226	         -0.30947632	          0.00000000	          0.02545071	         -0.00000000	          0.00000001	          0.00000000	          0.00000000	          0.00000000	          0.00000000	          0.00000000	          0.77553490	          0.00000000	          0.00000000	          0.00000000	          0.00000000	
          1.01000000	        -96.36263852	        619.35770399	        -39.36138852	         -0.32146628	          0.00000000	          0.02551501	         -0.00000000	          0.00000001	          0.00000000	          0.00000000	          0.00000000	          0.00000000	          0.00000000	          0.73681007	          0.00000000	          0.00000000	          0.00000000	          0.00000000	
          1.01500000	       -108.38726718	        649.31145866	        -32.40700546	         -0.32763412	          0.00000000	          0.02480975	         -0.00000000	          0.00000001	          0.00000000	          0.00000000	          0.00000000	          0.00000000	          0.00000000	          0.65091757	          0.00000000	          0.00000000	          0.00000000	          0.00000000	
          1.02000000	       -118.41837174	        675.51551534	        -23.90737198	         -0.32931589	          0.00000000	          0.02345481	         -0.00000000	          0.00000001	          0.00000000	          0.00000000	          0.00000000	          0.00000000	          0.00000000	          0.52042895	          0.00000000	          0.00000000	          0.00000000	          0.00000000	
          1.02500000	       -126.77881153	        699.88410209	        -14.37107956	         -0.32769861	          0.00000000	          0.02157152	         -0.00000000	          0.00000000	          0.00000000	         -0.00000000	          0.00000000	         -0.00000000	          0.00000000	          0.35476737	          0.00000000	          0.00000000	          0.00000000	          0.00000000	
          1.03000000	       -134.02476672	        724.08375806	         -4.30385690	         -0.32379084	          0.00000000	          0.01928463	         -0.00000000	          0.00000000	         -0.00000000	         -0.00000000	          0.00000000	         -0.00000000	          0.00000000	          0.16862853	          0.00000000	          0.00000000	          0.00000000	          0.00000000	
          1.03500000	       -140.64439006	        749.33100263	          5.76447771	         -0.31842216	          0.00000000	          0.01672360	         -0.00000000	         -0.00000000	         -0.00000000	         -0.00000000	          0.00000000	         -0.00000000	          0.00000000	         -0.02156787	          0.00000000	          0.00000000	          0.00000000	          0.00000000	
          1.04000000	       -146.88655347	        776.35362564	         15.30635269	         -0.31225461	          0.00000000	          0.01401864	         -0.00000000	         -0.00000001	         -0.00000000	         -0.00000000	          0.00000000	         -0.00000000	          0.00000000	         -0.20112655	          0.00000000	          0.00000000	          0.00000000	          0.00000000	
          1.04500000	       -152.76192644	        805.41292605	         23.86723831	         -0.30579791	          0.00000000	          0.01129220	          0.00000000	         -0.00000002	         -0.00000000	         -0.00000000	          0.00000000	         -0.00000000	          0.00000000	         -0.35972017	          0.00000000	          0.00000000	          0.00000000	          0.00000000	
          1.05000000	       -158.15407091	        836.32690536	         31.13385967	         -0.29942579	          0.00000000	          0.00864715	          0.00000000	         -0.00000003	         -0.00000000	         -0.00000000	          0.00000000	         -0.00000000	          0.00000000	         -0.49212713	          0.00000000	          0.00000000	         -0.00000000	          0.00000000	
          1.05500000	       -162.93140533	        868.53593469	         36.96510272	         -0.29339169	          0.00000000	          0.00616011	          0.00000000	         -0.00000005	         -0.00000000	         -0.00000000	          0.00000000	         -0.00000000	          0.00000000	         -0.59645725	          0.00000000	          0.00000000	         -0.00000000	          0.00000000	
          1.06000000	       -166.99264942	        901.23638686	         41.37171431	         -0.28784699	          0.00000000	          0.00387878	          0.00000000	         -0.00000007	         -0.00000001	         -0.00000000	          0.00000000	         -0.00000000	          0.00000000	         -0.67152274	          0.00000000	          0.00000000	         -0.00000000	          0.00000000	
          1.06500000	       -170.26351451	        933.54987810	         44.46490298	         -0.28286141	          0.00000000	          0.00182303	          0.00000001	         -0.00000009	         -0.00000001	         -0.00000000	          0.00000000	         -0.00000000	          0.00000000	         -0.71550192	          0.00000000	          0.00000000	         -0.00000000	          0.00000000	
          1.07000000	       -172.69345304	        964.65412354	         46.41049130	         -0.27844391	          0.00000000	         -0.00000932	          0.00000001	         -0.00000011	         -0.00000001	         -0.00000000	          0.00000000	         -0.00000000	          0.00000000	         -0.72619494	          0.00000000	          0.00000000	         -0.00000000	          0.00000000	
